<?xml version="1.0" encoding="iso-8859-1"?>
<!-- Generator: Adobe Illustrator 19.0.0, SVG Export Plug-In . SVG Version: 6.00 Build 0)  -->
<svg version="1.1" id="Layer_1" xmlns="http://www.w3.org/2000/svg" xmlns:xlink="http://www.w3.org/1999/xlink" x="0px" y="0px"
	 viewBox="0 0 510.8 510.8" style="enable-background:new 0 0 510.8 510.8;" xml:space="preserve">
<g>
	<g>
		<path d="M435.6,360.8c-7.2-24-36.4-52.4-64.4-79.6c-30.4-29.6-62-60-52.4-76c0.8-1.2,0.8-3.2,0-4.4c-0.8-1.2-2.4-2-4-1.6
			c-0.4,0-3.6,0.8-8,2.8c14-60,50-111.6,69.6-140c13.6-19.2,16.4-24,14-28.4c-0.4-0.8-2-2.8-5.6-2.4c-36.4,3.6-78.4,47.2-105.6,96.8
			c-2-33.6-4.8-63.2-8-85.6C265.2,3.2,259.6,0,254.8,0c-4.8,0-10.4,3.6-16.4,43.6c-3.2,22.4-6,52.8-8,86.4
			C203.6,79.6,161.2,34.8,124,31.6c-3.6-0.4-4.8,1.6-5.6,2.4c-2.4,4.4,0.8,8.8,14,28.4c19.6,28,55.2,79.2,69.6,138.8
			c-3.2-1.6-5.6-2-6-2c-1.6-0.4-3.2,0.4-4,1.6c-0.8,1.2-0.8,3.2,0,4.4c9.6,16-22,46.8-52.4,76c-28,27.2-57.2,55.6-64.4,80
			c-8.8,30.4-3.6,59.6,14.8,84c30,39.6,93.2,65.6,164.8,65.6c0.4,0,0.8,0,1.2,0c72,0,135.2-25.6,164.8-65.6
			C439.2,420.8,444.4,391.2,435.6,360.8z"/>
	</g>
</g>
<g>
</g>
<g>
</g>
<g>
</g>
<g>
</g>
<g>
</g>
<g>
</g>
<g>
</g>
<g>
</g>
<g>
</g>
<g>
</g>
<g>
</g>
<g>
</g>
<g>
</g>
<g>
</g>
<g>
</g>
</svg>
